PathFileType	4	(X/Y/Z)	C:\Users\WrightLab\Desktop\Jo\P2_Trial27.trc
DataRate	CameraRate	NumFrames	NumMarkers	Units	OrigDataRate	OrigDataStartFrame	OrigNumFrames
100.00	100.00	       31	19	mm	100.00	63	       501
Frame#	Time	Headset_Front			Headset_Back			Headset_Left			Headset_Right			Left_Shoulder			Right_Shoulder			Sternum			C7			Left Elbow			Right Elbow			Left Wrist			Right Wrist			Left ASIS			Right ASIS			S2			Left Knee			Right Knee			Left Ankle			Right Ankle			
		X1	Y1	Z1	X2	Y2	Z2	X3	Y3	Z3	X4	Y4	Z4	X5	Y5	Z5	X6	Y6	Z6	X7	Y7	Z7	X8	Y8	Z8	X9	Y9	Z9	X10	Y10	Z10	X11	Y11	Z11	X12	Y12	Z12	X13	Y13	Z13	X14	Y14	Z14	X15	Y15	Z15	X16	Y16	Z16	X17	Y17	Z17	X18	Y18	Z18	X19	Y19	Z19	

63	0.620	-295.32977	920.11017	-1553.93933																						-30.27473	1062.10950	-1393.20288	-536.63373	1088.07910	-1379.47852							-241.77698	1011.41846	-1297.33032							-108.02182	414.16785	-1390.85217				-441.06525	91.46532	-1316.23755	-105.76995	52.40607	-1404.70325	
64	0.630	-295.85089	920.34167	-1553.70703																						-31.53704	1062.08423	-1390.73694	-539.59326	1085.03394	-1390.97778							-242.23450	1010.77863	-1300.07458							-108.80975	414.30685	-1390.83716				-440.51044	91.93476	-1318.10193	-107.19770	53.87936	-1404.44006	
65	0.640	-296.42239	920.27026	-1552.94861																						-32.22851	1061.83630	-1389.67920	-539.75507	1089.36206	-1379.85364							-244.08612	1011.40076	-1299.39221							-108.61012	413.64694	-1389.92175				-441.10062	93.11578	-1318.23181	-107.64559	51.48298	-1403.34009	
66	0.650	-296.88678	920.48297	-1552.50427																						-32.99297	1061.42761	-1388.38159	-540.88275	1090.08997	-1381.13501							-246.03583	1010.90582	-1297.44226							-110.75834	413.96222	-1388.90491				-442.96606	95.00175	-1318.16895	-109.02240	52.53462	-1403.03186	
67	0.660	-297.41870	920.45331	-1551.76318																						-33.70424	1060.83875	-1387.33484	-542.24707	1091.36731	-1383.80151							-247.69629	1011.70013	-1295.60657							-113.09905	413.38153	-1387.41382				-447.63638	95.32366	-1320.35657	-109.48685	51.83097	-1402.36987	
68	0.670	-297.92050	920.51208	-1551.21252																						-34.91763	1060.19128	-1385.54907	-543.75061	1091.43604	-1384.33459							-248.56697	1011.28302	-1295.49463							-113.76408	413.39166	-1387.46057				-452.05627	95.92978	-1313.44751	-110.18638	51.27617	-1401.24695	
69	0.680	-298.47916	920.40594	-1550.28247																						-36.10558	1059.85864	-1383.38855	-545.45172	1092.02637	-1385.18652							-250.58786	1011.46252	-1293.25415							-114.96101	413.10464	-1387.27612				-457.30789	93.63655	-1315.65955	-110.88465	50.77601	-1400.54688	
70	0.690	-299.11600	920.46466	-1549.75659																						-37.16113	1059.66028	-1382.59375	-547.10272	1091.77344	-1384.47693							-252.95473	1011.09045	-1292.23901							-115.77264	412.76270	-1386.99963				-462.98218	97.06390	-1306.88440	-110.78005	51.13311	-1400.22522	
71	0.700	-299.64963	920.55164	-1549.18054																						-38.62535	1058.94702	-1379.90320	-548.37567	1092.09399	-1385.93311							-254.77696	1009.52557	-1293.03418							-117.01843	413.26721	-1386.98340				-469.02188	96.49754	-1307.49902	-111.82314	52.67613	-1400.47437	
72	0.710	-300.21631	920.67249	-1548.37158																						-39.51027	1058.71387	-1379.27380	-549.98102	1091.77124	-1386.56274							-256.27829	1008.77722	-1292.54480							-118.59995	413.38092	-1386.00256				-474.38702	94.93354	-1301.65234	-111.82802	51.65574	-1400.02795	
73	0.720	-300.90204	920.76849	-1547.71484																						-39.62993	1058.29114	-1380.36218	-552.02856	1092.10474	-1388.30872							-259.59656	1009.94379	-1287.16663							-120.14106	413.04688	-1383.79175				-481.86469	95.85689	-1297.53760	-112.89344	51.59309	-1399.63599	
74	0.730	-301.70441	920.80939	-1546.93433																						-41.63249	1058.37634	-1377.28345	-553.67072	1091.84229	-1389.10425							-260.43219	1008.46088	-1292.03748							-120.86804	413.04816	-1383.79285				-487.18430	98.74950	-1291.53003	-113.43982	52.36934	-1399.67078	
75	0.740	-302.47495	920.68884	-1545.93726																						-43.00546	1058.38586	-1374.34619	-555.10962	1091.14807	-1389.18469							-263.76019	1009.67743	-1286.74365							-121.72204	412.78256	-1382.82007				-495.07065	101.32805	-1281.66187	-114.04485	51.63316	-1399.00977	
76	0.750	-303.41028	920.49127	-1544.77649																						-44.59419	1058.19556	-1371.41504	-556.87988	1090.81030	-1390.13538							-265.66327	1010.13879	-1286.36975							-123.75129	412.63626	-1380.36475				-502.43195	101.83791	-1275.51489	-114.88493	51.56352	-1398.32837	
77	0.760	-304.50760	920.41028	-1543.62451																						-45.97105	1058.36133	-1369.19556	-559.23187	1090.96167	-1392.26514							-267.07025	1008.66901	-1289.34607							-125.88306	411.97983	-1377.21765				-509.19849	102.66677	-1274.50720	-116.00641	51.86916	-1397.67834	
78	0.770	-305.67874	920.29755	-1542.46936																						-47.26194	1057.60291	-1367.62952	-561.88324	1089.33191	-1390.44873							-270.79584	1009.77087	-1282.34351							-126.76071	412.13092	-1377.66003				-516.63672	101.87907	-1271.57300	-115.62467	52.56797	-1398.55652	
79	0.780	-307.06653	920.25195	-1541.29419																						-49.42299	1057.35229	-1364.41248	-563.77356	1088.10364	-1390.04016							-272.42413	1008.40668	-1281.98242							-128.64130	412.11969	-1375.19214				-523.43231	103.02032	-1267.23132	-116.11681	52.45667	-1397.27734	
80	0.790	-308.55685	920.06927	-1540.00098																						-50.46840	1056.83374	-1363.96863	-566.00610	1087.38733	-1390.15576							-276.08655	1007.31006	-1282.00940							-130.87373	412.24142	-1373.34717				-530.32489	103.44959	-1264.27673	-117.50325	52.90462	-1397.02234	
81	0.800	-310.14453	920.43750	-1539.43921																						-53.46516	1056.41492	-1360.51245	-568.42480	1087.63147	-1392.59985							-277.98352	1007.45630	-1280.45874							-132.49493	411.94138	-1372.07300				-538.57257	103.00050	-1265.08496	-117.36501	53.49877	-1396.50500	
82	0.810	-311.98532	920.24872	-1538.02625																						-56.28460	1056.53748	-1357.05176	-571.48975	1086.95227	-1392.06274							-280.66397	1008.12042	-1278.04138							-133.84030	412.48264	-1370.94275				-546.92828	103.32397	-1264.66626	-117.90089	54.63748	-1397.10107	
83	0.820	-313.78030	920.11676	-1536.47534																						-58.96977	1056.77795	-1353.53406	-573.32263	1085.90454	-1391.76001							-283.13452	1007.42291	-1278.17859							-135.81264	411.96198	-1368.35400				-554.19580	106.71959	-1252.36047	-119.15639	53.11226	-1395.09399	
84	0.830	-315.64758	919.83270	-1534.50037																						-61.73146	1056.73987	-1349.71790	-577.00244	1084.69238	-1389.61816							-286.04086	1006.53876	-1275.23535							-137.34415	411.67075	-1365.09241				-561.50781	107.81821	-1249.44946	-119.15639	53.11226	-1395.09399	
85	0.840	-317.77594	919.94427	-1533.34277																						-64.39169	1057.20898	-1347.62158	-579.11041	1084.44104	-1391.49500							-289.08783	1006.42877	-1273.37305							-140.17323	410.73560	-1363.71143				-569.70563	107.05092	-1250.81091	-121.15100	52.75642	-1393.48169	
86	0.850	-319.96378	919.77863	-1531.43408																						-67.89565	1057.43591	-1344.28088	-581.11475	1084.77271	-1393.46118							-291.80441	1005.69073	-1271.93494							-143.64056	410.99408	-1361.03662				-578.01099	107.28865	-1249.77563	-121.19933	53.13530	-1393.21436	
87	0.860	-322.21472	919.72791	-1529.52478																						-71.00551	1057.56506	-1340.43823	-585.03314	1083.75061	-1390.59119							-295.28555	1006.33783	-1267.64099							-145.53835	410.75845	-1359.86084				-586.12354	106.66207	-1248.76160	-122.17319	53.04911	-1391.95459	
88	0.870	-324.58502	919.75812	-1527.86841																						-74.31651	1057.90955	-1335.41003	-587.00256	1084.32654	-1393.82397							-298.66580	1005.20721	-1268.14124							-146.28087	411.31027	-1359.87549				-592.06409	108.36044	-1246.06543	-123.95089	51.40457	-1389.25708	
89	0.880	-326.93253	919.80432	-1525.72241																						-77.41228	1057.55920	-1332.69006	-591.43695	1081.95117	-1387.74377							-301.54184	1004.71393	-1265.29846							-150.16684	409.96924	-1355.52722				-599.60950	108.85761	-1242.39172	-124.17132	52.21022	-1387.97546	
90	0.890	-329.43256	919.59344	-1523.07581																						-80.75198	1058.44165	-1328.68030	-592.97937	1082.54309	-1390.18445							-304.90564	1002.76892	-1264.12244							-151.89890	409.71133	-1353.83679				-607.42297	107.65534	-1240.77490	-125.26392	54.20591	-1388.39539	
91	0.900	-332.22012	919.61267	-1521.28125				-439.23361	991.65265	-1278.35571																-84.13861	1058.42554	-1325.76294	-596.62811	1082.08826	-1389.31592							-307.85562	1002.95172	-1263.27466							-155.71317	409.34906	-1350.45190				-614.72858	107.92469	-1239.27161	-126.89893	52.34335	-1385.93604	
92	0.910	-335.02032	919.40509	-1518.43481				-443.18945	992.61786	-1268.62012																-87.73436	1058.79993	-1320.08203	-599.97815	1081.34778	-1387.39929							-312.59335	1002.95850	-1257.18408							-156.71523	410.03918	-1351.59082				-621.05988	109.06393	-1234.76367	-128.68762	53.49401	-1385.18628	
93	0.920	-337.92307	919.29626	-1515.81702				-446.38513	990.34424	-1273.53027																-90.60291	1059.36609	-1316.68469	-603.41101	1080.76172	-1385.62048							-315.39117	1000.93011	-1254.45813							-159.49246	410.05566	-1349.43811				-627.70496	108.37199	-1236.48157	-128.95959	53.25996	-1383.34595	
